<?xml version="1.0" encoding="UTF-8"?>
<svg width="313px" height="71px" viewBox="0 0 313 71" version="1.1" xmlns="http://www.w3.org/2000/svg" xmlns:xlink="http://www.w3.org/1999/xlink">
    <g stroke="none" stroke-width="1" fill="none" fill-rule="evenodd">
        <g id="Drachtio-Logo" fill-rule="nonzero">
            <g id="drachtio_logo" transform="translate(0.980000, 0.989325)">
                <path d="M41.87,18.2606751 C41.8643651,18.224225 41.8643651,18.1871253 41.87,18.1506751 L41.87,17.8606751 C41.87,17.7406751 41.87,17.6306751 41.87,17.5206751 L38.17,16.7606751 C29.11,14.8906751 29.86,30.6506751 28.4,35.2006751 C28.3277159,35.422203 28.1526905,35.5950506 27.9302751,35.6645554 C27.7078596,35.7340602 27.465559,35.691627 27.28,35.5506751 C24.5878643,33.4290171 21.2472961,32.2990152 17.82,32.3506751 C7.82,32.3506751 0,40.6306751 0,51.0706751 C0,61.5106751 7.83,69.7906751 17.82,69.7906751 C21.096228,69.8422585 24.2981034,68.8124566 26.93,66.8606751 C27.1472964,66.6988546 27.4370379,66.6727164 27.6797867,66.7930353 C27.9225355,66.9133543 28.0771907,67.1597587 28.08,67.4306751 L28.08,68.4306751 C28.0799814,68.6233763 28.1572095,68.8080431 28.2944063,68.9433604 C28.4316031,69.0786778 28.6173174,69.1533515 28.81,69.1506751 L38.72,69.0806751 C38.9227239,69.0785848 39.1154481,68.9922843 39.2520109,68.8424446 C39.3885737,68.6926048 39.4566739,68.4927229 39.44,68.2906751 L36.44,38.3606751 C36.4300519,38.2843312 36.4300519,38.2070191 36.44,38.1306751 C36.84,36.6506751 35.28,20.5906751 41.87,18.2606751 Z M20.09,59.6206751 C15.6483071,59.6506848 11.9360802,56.2481737 11.58,51.8206751 C11.2180455,47.0644793 14.7745993,42.9129297 19.53,42.5406751 C22.6498882,42.3270844 25.6374871,43.8338147 27.3203665,46.4695765 C29.003246,49.1053383 29.1128933,52.4495812 27.6062793,55.1899165 C26.0996654,57.9302519 23.2171787,59.629444 20.09,59.6206751 L20.09,59.6206751 Z" id="Shape" fill="#DA1C5C"></path>
                <path d="M77.87,32.4906751 L77.87,42.6606751 C76.7761238,42.4215927 75.6596988,42.3008981 74.54,42.3006751 C68.87,42.3006751 64.82,45.7206751 64.82,51.6606751 L64.82,68.8506751 L53.28,68.8506751 L53.28,32.8506751 L64.8,32.8506751 L64.8,37.8506751 C66.9580221,34.3495108 70.7672724,32.2068075 74.88,32.1806751 C75.8865932,32.1327621 76.8946465,32.237276 77.87,32.4906751 Z" id="Path" fill="#231F20"></path>
                <path d="M124.76,59.4906751 L124.76,68.8506751 C123.800745,69.2996424 122.758807,69.5448041 121.7,69.5706751 C117.18482,69.6420597 112.970801,67.3123584 110.63,63.4506751 C107.739892,67.3614161 103.142288,69.6397431 98.28,69.5706751 C88.28,69.5706751 80.46,61.2906751 80.46,50.8506751 C80.46,40.4106751 88.28,32.1306751 98.28,32.1306751 C102.067426,32.0705592 105.735752,33.4542258 108.54,36.0006751 L108.54,32.8506751 L119.97,32.8506751 L119.97,55.9806751 C119.97,58.9806751 121.59,59.4906751 123.12,59.4906751 L124.76,59.4906751 Z M109.1,50.8506751 C109.085604,47.8475704 107.50927,45.0684228 104.939156,43.5149229 C102.369043,41.961423 99.1756592,41.8575243 96.51,43.2406751 C94.6125959,44.1591882 93.1691372,45.8083398 92.51,47.8106751 C91.312298,51.0229622 92.1442396,54.6399405 94.6250484,57.0061328 C97.1058571,59.3723251 100.758116,60.032372 103.910201,58.6841724 C107.062285,57.3359728 109.107595,54.2389797 109.11,50.8106751 L109.1,50.8506751 Z" id="Shape" fill="#231F20"></path>
                <path d="M128.9,50.8506751 C128.9,40.0506751 136.9,32.1306751 148.97,32.1306751 C159.77,32.1306751 167.15,38.4306751 168.68,47.4306751 L156.8,47.4306751 C155.502064,44.2659453 152.389752,42.2268444 148.97,42.3006751 C144.247965,42.3006751 140.42,46.1286405 140.42,50.8506751 C140.42,55.5727097 144.247965,59.4006751 148.97,59.4006751 C152.389752,59.4745059 155.502064,57.4354049 156.8,54.2706751 L168.68,54.2706751 C167.15,63.2706751 159.77,69.5706751 148.97,69.5706751 C136.91,69.5706751 128.9,61.6506751 128.9,50.8506751 Z" id="Path" fill="#231F20"></path>
                <path d="M210.71,46.0706751 L210.71,68.8406751 L199.19,68.8406751 L199.19,47.9706751 C199.253168,46.4797518 198.701105,45.0283401 197.663072,43.9562726 C196.625038,42.8842051 195.192185,42.2856219 193.7,42.3006751 C190.316836,42.3762545 187.606185,45.1267684 187.58,48.5106751 L187.58,68.8506751 L176.06,68.8506751 L176.06,7.20067514 L187.58,7.20067514 L187.58,36.9006751 C190.068699,33.897523 193.759726,32.1508765 197.66,32.1306751 C204.95,32.1306751 210.71,38.1606751 210.71,46.0706751 Z" id="Path" fill="#231F20"></path>
                <path d="M233.66,41.7606751 L233.66,54.6306751 C233.66,57.6306751 235.37,59.4906751 237.8,59.4906751 L242.12,59.4906751 L242.12,68.4006751 C241.22,69.0306751 238.79,69.5706751 236.36,69.5706751 C228.71,69.5706751 222.23,63.6306751 222.23,55.9806751 L222.23,41.7606751 L216.23,41.7606751 L216.23,32.8506751 L222.23,32.8506751 L222.23,18.9906751 L233.66,18.9906751 L233.66,32.8506751 L242.21,32.8506751 L242.21,41.7606751 L233.66,41.7606751 Z" id="Path" fill="#231F20"></path>
                <path d="M251.41,21.4206751 C251.008969,18.6088057 252.539085,15.8762978 255.146035,14.7488008 C257.752984,13.6213038 260.792026,14.3776662 262.566361,16.595586 C264.340697,18.8135057 264.411505,21.9444549 262.739251,24.2403209 C261.066997,26.536187 258.065256,27.4291648 255.41,26.4206751 C253.267258,25.60455 251.735862,23.6903043 251.41,21.4206751 L251.41,21.4206751 Z M251.89,32.8506751 L263.28,32.8506751 L263.28,68.8506751 L251.89,68.8506751 L251.89,32.8506751 Z" id="Shape" fill="#231F20"></path>
                <path d="M271.69,50.8506751 C271.69,40.0506751 279.69,32.1306751 291.76,32.1306751 C303.83,32.1306751 311.76,40.0506751 311.76,50.8506751 C311.76,61.6506751 303.84,69.5706751 291.76,69.5706751 C279.68,69.5706751 271.69,61.6506751 271.69,50.8506751 Z M300.31,50.8506751 C300.31,46.1286405 296.482035,42.3006751 291.76,42.3006751 C287.037965,42.3006751 283.21,46.1286405 283.21,50.8506751 C283.21,55.5727097 287.037965,59.4006751 291.76,59.4006751 C294.032286,59.425168 296.218223,58.5312532 297.822238,56.9215897 C299.426254,55.3119261 300.31248,53.1228609 300.28,50.8506751 L300.31,50.8506751 Z" id="Shape" fill="#231F20"></path>
                <path d="M41.85,18.1506751 L41.85,17.8606751 C41.8501565,17.5243315 41.8870418,17.1890106 41.96,16.8606751 C42.53,5.95067514 42.71,-4.44932486 40.79,1.97067514 C37.26,13.8606751 20.21,27.6406751 20.21,27.6406751 C20.21,27.6406751 31.73,24.1706751 34.59,20.2406751 C37.45,16.3106751 40.71,35.7906751 40.71,35.7906751 C40.71,35.7906751 41.39,27.1506751 41.88,18.3606751 C41.865533,18.2913863 41.8555125,18.2212432 41.85,18.1506751 L41.85,18.1506751 Z" id="Path" fill="#DA1C5C"></path>
            </g>
        </g>
    </g>
</svg>